<svg width="640" height="320" viewBox="0 0 640 320" fill="none" xmlns="http://www.w3.org/2000/svg" role="img" aria-labelledby="title desc">
  <title id="title">Next Young Tech Full Logo</title>
  <desc id="desc">Next Young Tech logo with Website, UI/UX, and IT Solutions tagline.</desc>
  <rect width="640" height="320" fill="white"/>
  <g transform="translate(200 35) scale(1.02)">
    <svg width="240" height="180" viewBox="0 0 240 180" fill="none" xmlns="http://www.w3.org/2000/svg">
      <defs>
        <linearGradient id="fullMarkGradient" x1="34" y1="139" x2="206" y2="38" gradientUnits="userSpaceOnUse">
          <stop stop-color="#062C55"/>
          <stop offset="0.48" stop-color="#0E6D9C"/>
          <stop offset="1" stop-color="#30E4F2"/>
        </linearGradient>
        <linearGradient id="fullMarkGlow" x1="55" y1="45" x2="189" y2="137" gradientUnits="userSpaceOnUse">
          <stop stop-color="#E3FBFF" stop-opacity="0.9"/>
          <stop offset="1" stop-color="#13C8FF" stop-opacity="0"/>
        </linearGradient>
        <filter id="fullSoftShadow" x="15" y="16" width="210" height="144" filterUnits="userSpaceOnUse" color-interpolation-filters="sRGB">
          <feDropShadow dx="0" dy="10" stdDeviation="9" flood-color="#07111F" flood-opacity="0.18"/>
        </filter>
      </defs>
      <path filter="url(#fullSoftShadow)" d="M43 128c-16-20-4-51 22-57 18-4 31 4 43 24l15 26c8 13 16 18 25 17 14-1 23-15 22-31l-3-59c-1-20 14-36 33-35 19 1 33 17 32 37l-1 65c-1 31-23 57-53 61-28 4-52-10-68-38L96 115c-8-13-15-18-24-17-13 1-21 15-14 25 6 8 3 21-6 27-8 5-18 3-24-4Z" fill="url(#fullMarkGradient)"/>
      <path d="M54 126c-8-12-1-31 16-34 14-3 25 5 36 23l15 25c12 20 31 30 53 27 24-3 42-24 43-50l1-66c1-12-7-22-18-23-11-1-20 9-19 22l3 59c1 24-14 42-35 44-16 2-28-6-39-24L94 103C85 89 77 84 67 86" stroke="url(#fullMarkGlow)" stroke-width="6" stroke-linecap="round"/>
      <path d="M72 105c18-8 35 0 47 19M91 78c12 4 22 13 31 28M146 146c18-2 31-15 34-34M190 51l2 51" stroke="#BDF7FF" stroke-opacity="0.55" stroke-width="2" stroke-linecap="round"/>
      <g stroke="#BDF7FF" stroke-opacity="0.72" stroke-width="1.5" stroke-linecap="round">
        <path d="M80 96v-12h14"/>
        <path d="M112 105V84h18"/>
        <path d="M132 129v-16h18"/>
        <path d="M154 139v-18h15"/>
        <path d="M194 79V61"/>
        <path d="M204 94V72"/>
      </g>
      <g fill="#D8FCFF">
        <circle cx="94" cy="84" r="2.5"/>
        <circle cx="130" cy="84" r="2.5"/>
        <circle cx="150" cy="113" r="2.5"/>
        <circle cx="169" cy="121" r="2.5"/>
        <circle cx="194" cy="61" r="2.5"/>
        <circle cx="204" cy="72" r="2.5"/>
      </g>
    </svg>
  </g>
  <text x="320" y="245" text-anchor="middle" font-family="Inter, Arial, sans-serif" font-size="42" font-weight="800" letter-spacing="2" fill="#073A5A">NEXT YOUNG TECH</text>
  <text x="320" y="282" text-anchor="middle" font-family="Inter, Arial, sans-serif" font-size="25" font-weight="500" fill="#4A5568">Website • UI/UX • IT Solutions</text>
</svg>
